<?xml version="1.0" encoding="UTF-8"?> <svg xmlns="http://www.w3.org/2000/svg" xmlns:xlink="http://www.w3.org/1999/xlink" version="1.1" id="Ebene_1" x="0px" y="0px" viewBox="0 0 891 306" style="enable-background:new 0 0 891 306;" xml:space="preserve"> <style type="text/css"> .st0{fill-rule:evenodd;clip-rule:evenodd;fill:#434343;} .st1{fill-rule:evenodd;clip-rule:evenodd;fill:url(#SVGID_1_);} .st2{fill:url(#SVGID_00000068670129119797640180000000598075538725559456_);} .st3{fill:url(#SVGID_00000132056524352702220300000010591407198770618256_);} .st4{fill-rule:evenodd;clip-rule:evenodd;fill:url(#SVGID_00000151527080950751816810000009553726747872544947_);} .st5{fill:url(#SVGID_00000049937451356822262030000010036344088594651574_);} .st6{fill:url(#SVGID_00000069379783405550908220000003514483847995537536_);} .st7{fill-rule:evenodd;clip-rule:evenodd;fill:url(#SVGID_00000011753029697967234680000003313438925628853913_);} .st8{fill-rule:evenodd;clip-rule:evenodd;fill:url(#SVGID_00000023247603432463113520000010990068247963826622_);} .st9{fill-rule:evenodd;clip-rule:evenodd;fill:url(#SVGID_00000011031642225741790610000018171112253021426335_);} .st10{fill:url(#SVGID_00000113322536684621405460000013032215650400210348_);} .st11{fill-rule:evenodd;clip-rule:evenodd;fill:url(#SVGID_00000057845634053921117390000015604536147154368677_);} .st12{fill:url(#SVGID_00000068634896771540414960000016582670768113039775_);} .st13{fill:url(#SVGID_00000007393497148624936450000007330014583165236895_);} .st14{fill:url(#SVGID_00000173865469182369474220000012482917898129713550_);} </style> <g> <path class="st0" d="M864.4,121.4c-0.7-5.1-2.8-9.2-6.3-12.3c-4.4-4-10.7-6-19-6c-7.7,0-13.6,1.6-17.9,4.9 c-4.1,3.2-6.3,7.7-6.3,13.4h-23.5c0.1-10.7,4.5-19.5,13.3-26.5c8.9-7.1,20.4-10.6,34.6-10.6c9.4,0,17.8,1.7,25.1,5.2 c7.4,3.5,13.1,8.4,17.3,14.8c3.4,5.2,5.4,10.9,6.1,17.1H864.4z M719.8,121.4h-1.9h-2.7h-21.5L707,86.2h21.1l13.3,35.2H719.8z M624.4,121.4c-1-1.7-2-3.2-3.2-4.7c-6.4-7.7-15.6-11.6-27.7-11.6H577v16.3h-23.5V86.2h39.9c11.9,0,22.5,2.7,31.8,8 c9.2,5.3,16.4,12.9,21.5,22.7c0.8,1.5,1.5,3,2.1,4.6H624.4z M505.4,121.4V86.2h23.4v35.2H505.4z M456.3,121.4l7.2-35.2h23.3 l-8.1,35.2H456.3z M388.6,121.4l8.9-35.2h19.7l8.8,35.2H388.6z M335.6,121.4l-8.1-35.2h23.3l7.3,35.2H335.6z M846.3,166.7 c-3.1-1.2-6.5-2.4-10.4-3.5c-0.8-0.2-1.6-0.5-2.4-0.8h45.7c1.3,1.4,2.4,2.8,3.4,4.3H846.3z M809.1,151.6c-2.1-1.4-4-2.8-5.7-4.3 h51.1c3.6,1.4,7,2.8,10,4.3H809.1z M747.1,136.5h-22.1l-1.5-4.3h21.9L747.1,136.5z M710,136.5h-21.9l1.6-4.3h21.8L710,136.5z M653.2,136.5h-23.6c-0.3-1.5-0.6-2.9-0.9-4.3h23.6C652.6,133.6,652.9,135,653.2,136.5z M577,136.5h-23.5v-4.3H577V136.5z M528.7,136.5h-23.4v-4.3h23.4V136.5z M475.2,136.5h-22l0.9-4.3h22.1L475.2,136.5z M429.8,136.5h-18.8l-1.1-4.3h18.8L429.8,136.5z M403.8,136.5h-19l1.1-4.3H405L403.8,136.5z M361.2,136.5h-22.1l-1-4.3h22.2L361.2,136.5z M345.1,162.3h21.4l0.9,4.3h-21.3 L345.1,162.3z M378.2,162.3h18.7l-1.1,4.3h-18.7L378.2,162.3z M417.8,162.3h18.5l1.1,4.3h-18.5L417.8,162.3z M448,162.3h21.3 l-1,4.3h-21.2L448,162.3z M505.4,162.3h23.4v4.3h-23.4V162.3z M553.6,162.3H577v4.3h-23.5V162.3z M630.6,162.3h23.6 c-0.1,1.5-0.2,2.9-0.3,4.3h-23.6C630.4,165.3,630.5,163.8,630.6,162.3z M678.3,162.3H701l-1.5,4.3h-22.8L678.3,162.3z M735.6,166.7 l-1.5-4.3h22.8l1.6,4.3H735.6z M752.8,151.6h-22.5l-1.5-4.3h22.4L752.8,151.6z M704.7,151.6h-22.4l1.6-4.3h22.2L704.7,151.6z M654.3,150.5v1.1h-23.6v-1.2c0-1.1,0-2.1-0.1-3.1h23.5C654.3,148.3,654.3,149.4,654.3,150.5z M577,151.6h-23.5v-4.3H577V151.6z M528.7,151.6h-23.4v-4.3h23.4V151.6z M471.7,151.6h-21.6l0.9-4.3h21.7L471.7,151.6z M433.6,151.6H415l-1.1-4.3h18.7L433.6,151.6z M399.8,151.6H381l1.1-4.3H401L399.8,151.6z M364.3,151.6h-21.7l-1-4.3h21.8L364.3,151.6z M794.9,136.5c-0.7-1.4-1.3-2.8-1.8-4.3 h26.3c0.7,0.7,1.5,1.4,2.3,2c1.1,0.8,2.3,1.6,3.8,2.3H794.9z"></path> <path class="st0" d="M389.5,190.4l-8.3,31.1h-22.5l-7.2-31.1H389.5z M462.8,190.4l-7.2,31.1h-22.5l-8.1-31.1H462.8z M528.7,190.4 v31.1h-23.4v-31.1H528.7z M577,190.4v12.3h15.3c12.3,0,21.8-3.9,28.3-11.6c0.2-0.3,0.4-0.5,0.6-0.8H647c-0.1,0.2-0.2,0.5-0.4,0.7 c-5.1,9.7-12.4,17.2-21.8,22.5c-9.4,5.3-20.2,7.9-32.4,7.9h-38.9v-31.1H577z M691.2,190.4l-10.8,31.1H656l11.7-31.1H691.2z M767.5,190.4l11.8,31.1h-24.5l-10.9-31.1H767.5z M812.5,190.4c1.3,3.2,3.2,5.9,5.9,8.1c5.1,4.2,12.3,6.3,21.8,6.3 c8.2,0,14.3-1.7,18.4-5c3.1-2.5,5.1-5.7,5.8-9.4H888c-0.9,9.5-5.1,17.1-12.7,23c-8.6,6.7-20.3,10-35.1,10c-9.8,0-18.8-1.8-26.9-5.4 c-8.2-3.6-14.6-8.6-19.1-15c-2.7-3.8-4.6-8-5.7-12.5H812.5z"></path> <g> <g> <linearGradient id="SVGID_1_" gradientUnits="userSpaceOnUse" x1="144.4448" y1="306.3712" x2="165.9984" y2="2.2259"> <stop offset="1.573878e-03" style="stop-color:#212222"></stop> <stop offset="2.823253e-03" style="stop-color:#222323"></stop> <stop offset="5.596116e-02" style="stop-color:#4D4D4D"></stop> <stop offset="0.1039" style="stop-color:#6B6B6C"></stop> <stop offset="0.1445" style="stop-color:#7E7D7E"></stop> <stop offset="0.173" style="stop-color:#858485"></stop> <stop offset="0.2097" style="stop-color:#818081"></stop> <stop offset="0.2471" style="stop-color:#757475"></stop> <stop offset="0.2847" style="stop-color:#606060"></stop> <stop offset="0.3224" style="stop-color:#444444"></stop> <stop offset="0.3236" style="stop-color:#434343"></stop> <stop offset="0.3289" style="stop-color:#515151"></stop> <stop offset="0.3488" style="stop-color:#7F7F7F"></stop> <stop offset="0.3694" style="stop-color:#A6A6A6"></stop> <stop offset="0.3905" style="stop-color:#C6C6C6"></stop> <stop offset="0.4122" style="stop-color:#DFDFDF"></stop> <stop offset="0.4349" style="stop-color:#F1F1F1"></stop> <stop offset="0.4589" style="stop-color:#FCFCFC"></stop> <stop offset="0.4869" style="stop-color:#FFFFFF"></stop> <stop offset="0.5787" style="stop-color:#FCFCFC"></stop> <stop offset="0.6362" style="stop-color:#F4F4F4"></stop> <stop offset="0.6844" style="stop-color:#E5E5E5"></stop> <stop offset="0.7274" style="stop-color:#D1D1D1"></stop> <stop offset="0.7665" style="stop-color:#B7B6B6"></stop> <stop offset="0.7846" style="stop-color:#A8A7A7"></stop> <stop offset="0.8093" style="stop-color:#BDBCBC"></stop> <stop offset="0.8417" style="stop-color:#D0D0D0"></stop> <stop offset="0.8787" style="stop-color:#DEDEDE"></stop> <stop offset="0.9238" style="stop-color:#E7E6E6"></stop> <stop offset="1" style="stop-color:#E9E9E9"></stop> </linearGradient> <path class="st1" d="M301.6,183l-18.8-10.8c6.4-41.3-7.9-82-36.1-110.3c0,0-0.1-0.1-0.1-0.1l-0.1,0.1 c-7.8-7.8-16.3-14.4-25.3-19.8c-9.9-5.8-20.8-10.5-32.4-13.5l0-0.1c-0.4-0.1-0.8-0.3-1.1-0.4c-38.5-10-80.6-1.9-113,24.2L56,41.5 c46.3-41.6,112.5-49,166-22.2C281.9,48.8,315.6,115.9,301.6,183z M27.8,133.7c-6.3,41,7.7,81.4,35.3,109.6 c0.3,0.2,0.6,0.5,0.9,0.8l0.1-0.1c10.9,11,23.4,19.6,36.6,25.8c6.7,3.1,13.7,5.6,21,7.6l0,0.1c0.3,0.1,0.5,0.2,0.7,0.3 c38.6,10.2,81,2.2,113.5-24.1l18.8,10.8c-44.4,39.9-107.2,48.3-159.4,25.3C31.3,262.1-5.5,192.5,9,123L27.8,133.7z"></path> </g> <linearGradient id="SVGID_00000156552681097856678040000003920011450305899967_" gradientUnits="userSpaceOnUse" x1="128.3839" y1="305.6903" x2="134.1316" y2="110.7499"> <stop offset="0" style="stop-color:#A8A7A7"></stop> <stop offset="7.816100e-02" style="stop-color:#A1A1A0"></stop> <stop offset="0.322" style="stop-color:#90908F"></stop> <stop offset="0.3617" style="stop-color:#A7A6A6"></stop> <stop offset="0.4112" style="stop-color:#BBBBBA"></stop> <stop offset="0.467" style="stop-color:#CAC9C9"></stop> <stop offset="0.5338" style="stop-color:#D2D1D1"></stop> <stop offset="0.6401" style="stop-color:#D5D4D4"></stop> <stop offset="0.6466" style="stop-color:#D1D0D0"></stop> <stop offset="0.7007" style="stop-color:#B5B4B4"></stop> <stop offset="0.7547" style="stop-color:#A0A09F"></stop> <stop offset="0.8083" style="stop-color:#949493"></stop> <stop offset="0.861" style="stop-color:#90908F"></stop> <stop offset="1" style="stop-color:#D5D4D4"></stop> </linearGradient> <path style="fill:url(#SVGID_00000156552681097856678040000003920011450305899967_);" d="M237.3,251.2l-1.7-1l-1.5,1.2 c-22.1,17.9-50.1,27.7-78.7,27.7c-10.2,0-20.3-1.2-30.2-3.7l0-0.1l-2.8-0.7c-7-1.9-13.9-4.3-20.5-7.4 C88.6,261,76.6,252.5,66.1,242l-2-2l-0.1,0.1c-12.9-13.5-22.7-29.9-28.6-47.7c-6.1-18.7-7.8-38.8-4.8-58.3l0.3-1.9l-1.7-1 l-18.7-10.8l-3.4-2l-0.8,3.9c-7.1,34.2-2.2,70,13.9,101c16,30.8,42.3,55.3,74,69c19.4,8.5,40,12.9,61.3,12.9 c37.5,0,73.4-13.7,101.2-38.7l2.9-2.6l-3.4-2L237.3,251.2z M155.5,302.4c-20.5,0-41.1-4.2-60.2-12.6C31.3,262.1-5.5,192.5,9,123 l18.7,10.8c-6.3,41,7.7,81.4,35.3,109.6c0.3,0.2,0.6,0.5,0.9,0.8l0.1-0.1c10.9,11,23.4,19.6,36.6,25.8c6.7,3.1,13.7,5.6,21,7.6 l0,0.1c0.3,0.1,0.5,0.2,0.7,0.3c10.8,2.9,21.9,4.3,33,4.3c28.6,0,57.1-9.4,80.5-28.3l18.8,10.8C226.5,289.8,191,302.4,155.5,302.4 z"></path> <linearGradient id="SVGID_00000029726733333105122310000001266382156928714925_" gradientUnits="userSpaceOnUse" x1="305.3757" y1="96.9546" x2="43.3806" y2="86.8962"> <stop offset="0" style="stop-color:#A8A7A7"></stop> <stop offset="7.816100e-02" style="stop-color:#A1A1A0"></stop> <stop offset="0.322" style="stop-color:#90908F"></stop> <stop offset="0.3617" style="stop-color:#A7A6A6"></stop> <stop offset="0.4112" style="stop-color:#BBBBBA"></stop> <stop offset="0.467" style="stop-color:#CAC9C9"></stop> <stop offset="0.5338" style="stop-color:#D2D1D1"></stop> <stop offset="0.6401" style="stop-color:#D5D4D4"></stop> <stop offset="0.6466" style="stop-color:#D1D0D0"></stop> <stop offset="0.7007" style="stop-color:#B5B4B4"></stop> <stop offset="0.7547" style="stop-color:#A0A09F"></stop> <stop offset="0.8083" style="stop-color:#949493"></stop> <stop offset="0.861" style="stop-color:#90908F"></stop> <stop offset="1" style="stop-color:#D5D4D4"></stop> </linearGradient> <path style="fill:url(#SVGID_00000029726733333105122310000001266382156928714925_);" d="M306.3,132.9c-2.2-16.4-7-32.2-14.3-47.1 c-14.7-29.9-39.1-54.4-68.8-69.1c-21-10.5-44.5-16.1-68.1-16.1C117.7,0.7,81.8,14.4,54,39.4L51.1,42l3.4,2l18.8,10.8l1.7,1 l1.5-1.2c22.1-17.9,50.1-27.7,78.7-27.7c10.2,0,20.3,1.2,30.1,3.6l0,0.2l2.8,0.7c11.2,3,21.8,7.4,31.7,13.2 c9,5.4,17.3,11.9,24.7,19.3l2,2l0.1-0.1c12.7,13.4,22.5,29.6,28.4,47.2c6.3,18.8,8,39.1,5,58.7l-0.3,1.9l1.7,1l18.8,10.8l3.4,2 l0.8-3.9C307.9,166.9,308.6,149.8,306.3,132.9z M301.6,183l-18.8-10.8c6.4-41.3-7.9-82-36.1-110.3c0,0-0.1-0.1-0.1-0.1l-0.1,0.1 c-7.8-7.8-16.3-14.4-25.3-19.8c-9.9-5.8-20.8-10.5-32.4-13.5l0-0.1c-0.4-0.1-0.8-0.3-1.1-0.4c-10.6-2.8-21.6-4.1-32.5-4.1 c-28.6,0-57.1,9.5-80.5,28.4L56,41.5c28.2-25.3,63.7-38,99.2-38c22.9,0,45.8,5.3,66.8,15.8C281.8,48.8,315.6,115.9,301.6,183z"></path> <g> <linearGradient id="SVGID_00000074440177499265338920000008305960278967316366_" gradientUnits="userSpaceOnUse" x1="174.9292" y1="176.5037" x2="187.1206" y2="4.4695"> <stop offset="1.573878e-03" style="stop-color:#212222"></stop> <stop offset="2.823253e-03" style="stop-color:#222323"></stop> <stop offset="5.596116e-02" style="stop-color:#4D4D4D"></stop> <stop offset="0.1039" style="stop-color:#6B6B6C"></stop> <stop offset="0.1445" style="stop-color:#7E7D7E"></stop> <stop offset="0.173" style="stop-color:#858485"></stop> <stop offset="0.2097" style="stop-color:#818081"></stop> <stop offset="0.2471" style="stop-color:#757475"></stop> <stop offset="0.2847" style="stop-color:#606060"></stop> <stop offset="0.3224" style="stop-color:#444444"></stop> <stop offset="0.3236" style="stop-color:#434343"></stop> <stop offset="0.3289" style="stop-color:#515151"></stop> <stop offset="0.3488" style="stop-color:#7F7F7F"></stop> <stop offset="0.3694" style="stop-color:#A6A6A6"></stop> <stop offset="0.3905" style="stop-color:#C6C6C6"></stop> <stop offset="0.4122" style="stop-color:#DFDFDF"></stop> <stop offset="0.4349" style="stop-color:#F1F1F1"></stop> <stop offset="0.4589" style="stop-color:#FCFCFC"></stop> <stop offset="0.4869" style="stop-color:#FFFFFF"></stop> <stop offset="0.5787" style="stop-color:#FCFCFC"></stop> <stop offset="0.6362" style="stop-color:#F4F4F4"></stop> <stop offset="0.6844" style="stop-color:#E5E5E5"></stop> <stop offset="0.7274" style="stop-color:#D1D1D1"></stop> <stop offset="0.7665" style="stop-color:#B7B6B6"></stop> <stop offset="0.7846" style="stop-color:#A8A7A7"></stop> <stop offset="0.8093" style="stop-color:#BDBCBC"></stop> <stop offset="0.8417" style="stop-color:#D0D0D0"></stop> <stop offset="0.8787" style="stop-color:#DEDEDE"></stop> <stop offset="0.9238" style="stop-color:#E7E6E6"></stop> <stop offset="1" style="stop-color:#E9E9E9"></stop> </linearGradient> <path style="fill-rule:evenodd;clip-rule:evenodd;fill:url(#SVGID_00000074440177499265338920000008305960278967316366_);" d=" M301.6,183l-18.8-10.8c6.4-41.3-7.9-82-36.1-110.3c0,0-0.1-0.1-0.1-0.1l-0.1,0.1c-7.8-7.8-16.3-14.4-25.3-19.8 c-9.9-5.8-20.8-10.5-32.4-13.5l0-0.1c-0.4-0.1-0.8-0.3-1.1-0.4c-38.5-10-80.6-1.9-113,24.2L56,41.5c46.3-41.6,112.5-49,166-22.2 C281.9,48.8,315.6,115.9,301.6,183z"></path> </g> </g> <g> <linearGradient id="SVGID_00000173125129148361371480000016800992682716022927_" gradientUnits="userSpaceOnUse" x1="5.8738" y1="211.2361" x2="256.9417" y2="211.2361"> <stop offset="0" style="stop-color:#606060"></stop> <stop offset="1" style="stop-color:#000000"></stop> </linearGradient> <path style="fill:url(#SVGID_00000173125129148361371480000016800992682716022927_);" d="M253.2,260.2 c-25.8,23.6-60.2,38.1-97.9,38.1C75.2,298.3,10,233.1,10,153c0-10.6,1.1-20.9,3.3-30.8L9.5,120c-2.4,10.6-3.7,21.6-3.7,33 c0,82.4,67,149.4,149.4,149.4c39.2,0,74.9-15.2,101.6-40L253.2,260.2z"></path> </g> <linearGradient id="SVGID_00000028285840569788357220000015862186666830715277_" gradientUnits="userSpaceOnUse" x1="179.2155" y1="185.2506" x2="179.2155" y2="1.964"> <stop offset="0" style="stop-color:#000000"></stop> <stop offset="1" style="stop-color:#606060"></stop> </linearGradient> <path style="fill:url(#SVGID_00000028285840569788357220000015862186666830715277_);" d="M57.4,45.8c25.8-23.6,60.2-38.1,97.9-38.1 c80.1,0,145.3,65.2,145.3,145.3c0,10.5-1.1,20.7-3.2,30.5l3.8,2c2.3-10.5,3.6-21.4,3.6-32.6c0-82.4-67-149.4-149.4-149.4 c-39.2,0-74.9,15.2-101.6,40L57.4,45.8z"></path> <g> <linearGradient id="SVGID_00000183242918903514938940000017028106999469261724_" gradientUnits="userSpaceOnUse" x1="203.0137" y1="220.2535" x2="203.0137" y2="85.697"> <stop offset="0" style="stop-color:#E9E9E9"></stop> <stop offset="1" style="stop-color:#79797A"></stop> </linearGradient> <polygon style="fill-rule:evenodd;clip-rule:evenodd;fill:url(#SVGID_00000183242918903514938940000017028106999469261724_);" points=" 203,85.1 171.2,221.8 203,221.8 234.8,85.1 "></polygon> <g> <image style="overflow:visible;" width="64.2" height="137.2" transform="matrix(1 0 0 1 170.8923 84.8895)"></image> </g> </g> <g> <linearGradient id="SVGID_00000085222665924561685060000003337312435804278678_" gradientUnits="userSpaceOnUse" x1="139.4007" y1="220.2535" x2="139.4007" y2="85.697"> <stop offset="0" style="stop-color:#E9E9E9"></stop> <stop offset="1" style="stop-color:#79797A"></stop> </linearGradient> <polyline style="fill-rule:evenodd;clip-rule:evenodd;fill:url(#SVGID_00000085222665924561685060000003337312435804278678_);" points=" 139.4,85.1 107.6,221.8 139.4,221.8 171.2,85.1 "></polyline> <g> <image style="overflow:visible;" width="64.2" height="137" transform="matrix(1 0 0 1 107.2793 85.0828)"></image> </g> </g> <g> <linearGradient id="SVGID_00000087410290179472393420000006043146577781205906_" gradientUnits="userSpaceOnUse" x1="96.6683" y1="307.6434" x2="118.7598" y2="-4.0922"> <stop offset="1.573878e-03" style="stop-color:#212222"></stop> <stop offset="2.823253e-03" style="stop-color:#222323"></stop> <stop offset="5.596116e-02" style="stop-color:#4D4D4D"></stop> <stop offset="0.1039" style="stop-color:#6B6B6C"></stop> <stop offset="0.1445" style="stop-color:#7E7D7E"></stop> <stop offset="0.173" style="stop-color:#858485"></stop> <stop offset="0.2097" style="stop-color:#818081"></stop> <stop offset="0.2471" style="stop-color:#757475"></stop> <stop offset="0.2847" style="stop-color:#606060"></stop> <stop offset="0.3224" style="stop-color:#444444"></stop> <stop offset="0.3236" style="stop-color:#434343"></stop> <stop offset="0.3289" style="stop-color:#515151"></stop> <stop offset="0.3488" style="stop-color:#7F7F7F"></stop> <stop offset="0.3694" style="stop-color:#A6A6A6"></stop> <stop offset="0.3905" style="stop-color:#C6C6C6"></stop> <stop offset="0.4122" style="stop-color:#DFDFDF"></stop> <stop offset="0.4349" style="stop-color:#F1F1F1"></stop> <stop offset="0.4589" style="stop-color:#FCFCFC"></stop> <stop offset="0.4869" style="stop-color:#FFFFFF"></stop> <stop offset="0.5787" style="stop-color:#FCFCFC"></stop> <stop offset="0.6362" style="stop-color:#F4F4F4"></stop> <stop offset="0.6844" style="stop-color:#E5E5E5"></stop> <stop offset="0.7274" style="stop-color:#D1D1D1"></stop> <stop offset="0.7665" style="stop-color:#B7B6B6"></stop> <stop offset="0.7846" style="stop-color:#A8A7A7"></stop> <stop offset="0.8093" style="stop-color:#BDBCBC"></stop> <stop offset="0.8417" style="stop-color:#D0D0D0"></stop> <stop offset="0.8787" style="stop-color:#DEDEDE"></stop> <stop offset="0.9238" style="stop-color:#E7E6E6"></stop> <stop offset="1" style="stop-color:#E9E9E9"></stop> </linearGradient> <polygon style="fill-rule:evenodd;clip-rule:evenodd;fill:url(#SVGID_00000087410290179472393420000006043146577781205906_);" points=" 75.8,85.1 107.6,221.8 139.4,221.8 107.6,85.1 "></polygon> </g> <linearGradient id="SVGID_00000110435077249830508820000012204268834868106384_" gradientUnits="userSpaceOnUse" x1="103.8648" y1="260.2211" x2="111.7195" y2="35.3787"> <stop offset="0" style="stop-color:#BFBEBE"></stop> <stop offset="0.999" style="stop-color:#90908F"></stop> </linearGradient> <path style="fill:url(#SVGID_00000110435077249830508820000012204268834868106384_);" d="M106,87.1l30.9,132.7h-27.8L78.3,87.1H106 M107.6,85.1H75.8l31.8,136.7h31.8L107.6,85.1L107.6,85.1z"></path> <g> <linearGradient id="SVGID_00000150792632366990535580000008085878329300673203_" gradientUnits="userSpaceOnUse" x1="160.2304" y1="308.3609" x2="182.3219" y2="-3.3747"> <stop offset="1.573878e-03" style="stop-color:#212222"></stop> <stop offset="2.823253e-03" style="stop-color:#222323"></stop> <stop offset="5.596116e-02" style="stop-color:#4D4D4D"></stop> <stop offset="0.1039" style="stop-color:#6B6B6C"></stop> <stop offset="0.1445" style="stop-color:#7E7D7E"></stop> <stop offset="0.173" style="stop-color:#858485"></stop> <stop offset="0.2097" style="stop-color:#818081"></stop> <stop offset="0.2471" style="stop-color:#757475"></stop> <stop offset="0.2847" style="stop-color:#606060"></stop> <stop offset="0.3224" style="stop-color:#444444"></stop> <stop offset="0.3236" style="stop-color:#434343"></stop> <stop offset="0.3289" style="stop-color:#515151"></stop> <stop offset="0.3488" style="stop-color:#7F7F7F"></stop> <stop offset="0.3694" style="stop-color:#A6A6A6"></stop> <stop offset="0.3905" style="stop-color:#C6C6C6"></stop> <stop offset="0.4122" style="stop-color:#DFDFDF"></stop> <stop offset="0.4349" style="stop-color:#F1F1F1"></stop> <stop offset="0.4589" style="stop-color:#FCFCFC"></stop> <stop offset="0.4869" style="stop-color:#FFFFFF"></stop> <stop offset="0.5787" style="stop-color:#FCFCFC"></stop> <stop offset="0.6362" style="stop-color:#F4F4F4"></stop> <stop offset="0.6844" style="stop-color:#E5E5E5"></stop> <stop offset="0.7274" style="stop-color:#D1D1D1"></stop> <stop offset="0.7665" style="stop-color:#B7B6B6"></stop> <stop offset="0.7846" style="stop-color:#A8A7A7"></stop> <stop offset="0.8093" style="stop-color:#BDBCBC"></stop> <stop offset="0.8417" style="stop-color:#D0D0D0"></stop> <stop offset="0.8787" style="stop-color:#DEDEDE"></stop> <stop offset="0.9238" style="stop-color:#E7E6E6"></stop> <stop offset="1" style="stop-color:#E9E9E9"></stop> </linearGradient> <polygon style="fill-rule:evenodd;clip-rule:evenodd;fill:url(#SVGID_00000150792632366990535580000008085878329300673203_);" points=" 171.2,85.1 139.4,85.1 171.2,221.8 203,221.8 "></polygon> </g> <linearGradient id="SVGID_00000008852065489587444950000017318805728088940479_" gradientUnits="userSpaceOnUse" x1="167.4002" y1="262.4407" x2="175.255" y2="37.5983"> <stop offset="0" style="stop-color:#BFBEBE"></stop> <stop offset="0.999" style="stop-color:#90908F"></stop> </linearGradient> <path style="fill:url(#SVGID_00000008852065489587444950000017318805728088940479_);" d="M169.6,87.1l30.9,132.7h-27.8L141.9,87.1 H169.6 M171.2,85.1h-31.8l31.8,136.7H203L171.2,85.1L171.2,85.1z"></path> <g> <linearGradient id="SVGID_00000003094978028583847700000009305288272442356380_" gradientUnits="userSpaceOnUse" x1="77.7713" y1="153.8693" x2="136.6568" y2="153.8693"> <stop offset="0" style="stop-color:#606060"></stop> <stop offset="1" style="stop-color:#000000"></stop> </linearGradient> <polygon style="fill:url(#SVGID_00000003094978028583847700000009305288272442356380_);" points="136.7,220.7 108.4,220.7 77.8,87.4 79.7,87 109.9,218.8 136.7,218.8 "></polygon> </g> <g> <linearGradient id="SVGID_00000023272197622072076350000014472930883367029635_" gradientUnits="userSpaceOnUse" x1="141.5909" y1="153.4881" x2="199.4946" y2="153.4881"> <stop offset="0" style="stop-color:#606060"></stop> <stop offset="1" style="stop-color:#000000"></stop> </linearGradient> <polygon style="fill:url(#SVGID_00000023272197622072076350000014472930883367029635_);" points="199.5,219.8 171.7,219.8 141.6,87.6 143.5,87.2 173.2,217.8 199.5,217.8 "></polygon> </g> </g> </svg> 